<?xml version="1.0" standalone="no"?>
<!DOCTYPE svg PUBLIC "-//W3C//DTD SVG 20010904//EN"
 "http://www.w3.org/TR/2001/REC-SVG-20010904/DTD/svg10.dtd">
<svg version="1.0" xmlns="http://www.w3.org/2000/svg"
 width="553.000000pt" height="100.000000pt" viewBox="0 0 553.000000 100.000000"
 preserveAspectRatio="xMidYMid meet">

<g transform="translate(0.000000,100.000000) scale(0.100000,-0.100000)"
fill="#00000" stroke="none">
<path d="M186 518 c-37 -178 -70 -333 -73 -345 -4 -20 -1 -23 26 -23 17 0 31
-5 31 -11 0 -6 20 -9 52 -7 l52 3 26 125 c15 69 30 137 33 153 l7 27 139 0
139 0 10 47 c6 26 9 49 7 52 -2 2 -65 6 -139 9 -132 5 -136 5 -131 26 3 12 11
48 18 81 l14 60 141 3 141 3 6 32 c4 17 9 40 11 50 4 14 -1 17 -30 17 -20 0
-36 5 -36 10 0 6 -69 10 -188 10 l-188 0 -68 -322z"/>
<path d="M2384 797 c41 -41 47 -106 40 -389 l-7 -258 -24 0 c-12 0 -23 -4 -23
-10 0 -6 27 -10 60 -10 l60 0 -3 298 c-2 328 -5 345 -67 377 -46 24 -64 19
-36 -8z"/>
<path d="M3266 796 c8 -34 -3 -64 -27 -71 -29 -9 -5 -35 31 -35 29 0 70 39 70
65 0 22 -41 65 -61 65 -16 0 -18 -5 -13 -24z"/>
<path d="M4781 759 c-7 -34 -15 -67 -18 -75 -4 -10 4 -14 31 -14 38 0 43 9 62
113 6 37 6 37 -29 37 -34 0 -34 0 -46 -61z"/>
<path d="M2227 732 c-17 -19 -71 -130 -106 -220 l-21 -52 38 0 37 0 39 97 c22
53 54 116 72 139 18 23 30 45 27 48 -13 13 -71 5 -86 -12z"/>
<path d="M735 658 c-28 -121 -101 -498 -97 -503 3 -3 16 -5 29 -5 13 0 23 -4
23 -10 0 -5 24 -10 54 -10 l53 0 18 87 c51 260 87 323 194 343 l38 7 -19 -44
c-49 -111 -54 -243 -13 -307 21 -31 115 -76 175 -83 57 -7 149 18 185 50 14
12 29 37 34 55 9 32 9 32 -25 32 -19 0 -34 5 -34 10 0 6 -20 10 -45 10 -34 0
-50 -6 -69 -25 -47 -47 -86 -24 -86 50 l0 36 157 -3 157 -3 12 -53 c16 -74 40
-102 115 -135 53 -23 74 -27 126 -24 76 6 148 39 168 78 23 44 19 59 -15 59
-16 0 -30 5 -30 10 0 6 -21 10 -46 10 -33 0 -50 -5 -62 -20 -23 -26 -65 -35
-80 -17 -7 8 -13 32 -15 53 l-2 39 161 3 162 2 22 60 c26 70 24 137 -7 179
-42 57 -174 96 -275 80 -65 -10 -121 -48 -158 -105 l-28 -45 -7 31 c-16 71
-123 124 -252 122 -64 -1 -102 -15 -162 -60 l-34 -25 6 36 c6 36 5 37 -28 37
-18 0 -35 5 -37 12 -3 8 -23 9 -77 2 -39 -6 -74 -7 -77 -2 -3 4 -27 8 -54 8
-43 0 -50 -3 -55 -22z m605 -118 c6 -12 10 -35 8 -53 l-3 -32 -82 -3 c-99 -3
-106 8 -44 69 46 46 102 55 121 19z m490 0 c6 -12 10 -35 8 -53 l-3 -32 -87
-3 c-62 -2 -88 1 -88 9 0 6 20 31 44 55 35 36 50 44 79 44 26 0 39 -6 47 -20z"/>
<path d="M2952 633 c58 -61 62 -131 17 -338 -28 -125 -34 -145 -51 -145 -11 0
-16 -4 -13 -10 3 -5 26 -10 50 -10 43 0 44 1 55 41 23 86 60 275 60 310 0 76
-37 140 -97 165 -46 20 -50 17 -21 -13z"/>
<path d="M3692 634 c14 -15 31 -23 37 -20 17 11 13 22 -14 34 -42 19 -51 14
-23 -14z"/>
<path d="M3975 624 c38 -56 37 -99 -11 -311 -19 -84 -34 -155 -34 -158 0 -3
-9 -5 -20 -5 -11 0 -20 -5 -20 -11 0 -6 20 -9 52 -7 l53 3 32 145 c18 80 35
172 39 205 10 93 -20 148 -94 170 l-22 6 25 -37z"/>
<path d="M4453 630 c63 -55 70 -132 27 -273 -39 -127 -127 -197 -251 -199 -64
-1 -64 -1 -29 -14 120 -43 262 13 320 126 44 87 63 224 39 287 -13 34 -47 72
-74 83 -65 25 -69 23 -32 -10z"/>
<path d="M4877 653 c-3 -5 -8 -23 -12 -40 -7 -33 -7 -33 -64 -33 l-58 0 -26
-127 c-37 -177 -36 -195 16 -208 25 -7 27 -10 21 -44 -9 -48 -10 -50 -37 -44
-21 4 -21 3 3 -11 14 -8 39 -15 57 -16 28 0 32 4 38 33 4 17 9 40 11 50 4 13
-1 17 -26 17 -50 0 -54 30 -24 173 35 172 27 157 89 157 30 0 56 3 58 8 3 4 8
26 12 50 7 42 7 42 -24 42 -16 0 -32 -3 -34 -7z"/>
<path d="M5291 644 c57 -37 78 -110 59 -209 l-12 -65 -174 0 -174 0 0 -40 c0
-30 7 -47 25 -65 25 -26 77 -37 57 -12 -5 6 -12 29 -14 50 l-4 37 172 0 172 0
11 44 c14 57 14 136 0 173 -19 52 -53 79 -119 97 l-25 7 26 -17z"/>
<path d="M3211 488 c-18 -90 -31 -179 -29 -198 2 -29 8 -36 36 -44 31 -9 32
-11 26 -45 -9 -48 -10 -50 -37 -44 -17 5 -19 3 -10 -7 6 -7 31 -14 55 -17 l44
-5 11 46 c11 51 9 56 -24 56 -47 0 -48 31 -9 226 20 98 36 182 36 187 0 4 -15
7 -34 7 l-33 0 -32 -162z"/>
<path d="M2734 571 c-61 -37 -85 -92 -124 -281 -29 -141 -29 -140 -51 -140
-10 0 -19 -4 -19 -10 0 -5 24 -10 53 -10 l53 0 28 137 c44 209 78 272 160 294
29 8 36 13 25 20 -24 15 -93 10 -125 -10z"/>
<path d="M3536 569 c-46 -37 -57 -70 -116 -361 -9 -47 -15 -58 -31 -58 -10 0
-19 -5 -19 -11 0 -6 20 -9 52 -7 l52 3 18 85 c52 245 59 271 90 306 16 19 37
34 47 34 14 1 13 3 -3 15 -27 21 -59 19 -90 -6z"/>
<path d="M3814 580 c-51 -20 -65 -57 -129 -353 -14 -63 -20 -77 -36 -77 -10 0
-19 -5 -19 -11 0 -6 20 -9 52 -7 l53 3 36 166 c42 190 58 231 101 252 30 14
30 15 10 26 -24 13 -39 13 -68 1z"/>
<path d="M4254 565 c-14 -14 -31 -25 -39 -25 -8 0 -15 -4 -15 -10 0 -5 22 -10
48 -10 36 0 54 5 67 20 10 12 31 20 49 20 l31 1 -25 14 c-40 23 -87 19 -116
-10z"/>
<path d="M5110 579 c-32 -13 -68 -47 -86 -81 -21 -40 -18 -48 19 -48 26 0 36
6 50 29 29 49 74 81 115 81 l37 1 -25 14 c-29 17 -74 18 -110 4z"/>
<path d="M4610 570 c0 -5 7 -10 15 -10 8 0 15 5 15 10 0 6 -7 10 -15 10 -8 0
-15 -4 -15 -10z"/>
<path d="M3105 560 c-3 -5 1 -10 9 -10 9 0 16 5 16 10 0 6 -4 10 -9 10 -6 0
-13 -4 -16 -10z"/>
<path d="M4167 398 c-17 -14 -37 -59 -37 -84 0 -23 56 -74 81 -74 21 0 21 1 6
18 -22 24 -21 74 1 102 16 20 31 24 100 28 45 2 82 8 82 13 0 14 -214 11 -233
-3z"/>
<path d="M2189 373 l-126 -4 -43 -109 c-38 -96 -46 -110 -67 -110 -12 0 -23
-4 -23 -10 0 -6 26 -10 58 -10 l57 0 41 108 41 107 97 3 c76 2 96 6 96 17 0 8
-1 14 -2 13 -2 -1 -60 -4 -129 -5z"/>
<path d="M5240 238 c-22 -46 -88 -78 -164 -79 l-61 -1 35 -15 c74 -32 224 6
254 66 25 47 21 61 -16 61 -27 0 -36 -6 -48 -32z"/>
</g>
</svg>
